<svg width="50" height="50" viewBox="0 0 50 50" xmlns="http://www.w3.org/2000/svg">
<g id="logo">
<path fill-rule="evenodd" clip-rule="evenodd" d="M18.3125 42.0645L27.2623 6.6875L31.4375 7.87241L22.4878 43.3125L18.3125 42.0645Z" />
<path fill-rule="evenodd" clip-rule="evenodd" d="M13.5025 12.6875L16.5625 15.9278L7.99501 25.0001L16.5625 34.0721L13.5025 37.3125L1.875 25.0001L13.5025 12.6875Z" />
<path fill-rule="evenodd" clip-rule="evenodd" d="M36.4976 12.6875L33.4375 15.9278L42.0051 25.0001L33.4375 34.0721L36.4976 37.3125L48.125 25.0001L36.4976 12.6875Z" />
</g>

<g id="user">
<path d="M169,170.71l-2-4a73.78,73.78,0,0,0-31-32,66.14,66.14,0,0,0,29-54.5,65,65,0,1,0-101,54,73.78,73.78,0,0,0-31,32l-2,4a10.06,10.06,0,0,0,18,9l2-4a55,55,0,0,1,98,0l2,4a10,10,0,0,0,13.5,4.5c5-2,7-8,4.5-13ZM55,80.21a45,45,0,1,1,45,45A44.81,44.81,0,0,1,55,80.21Z"/>
</g>

</svg>
